<svg width="81" height="82" viewBox="0 0 81 82" fill="none" xmlns="http://www.w3.org/2000/svg">
<path d="M40.5 81.7334C62.8675 81.7334 81 63.6009 81 41.2334C81 18.8659 62.8675 0.733398 40.5 0.733398C18.1325 0.733398 0 18.8659 0 41.2334C0 63.6009 18.1325 81.7334 40.5 81.7334Z" fill="white"/>
<path fill-rule="evenodd" clip-rule="evenodd" d="M33.1235 52.8228C35.3039 54.0379 38.0582 54.7636 41.0502 54.7636C43.7927 54.7636 46.3343 54.1545 48.4187 53.1178C56.1826 55.3711 62.5213 60.74 65.8194 67.689C59.0131 73.9527 50.0881 77.7521 40.3226 77.7521C30.4901 77.7521 21.5099 73.8999 14.6865 67.5605C18.1567 60.3503 24.9092 54.861 33.1235 52.8228Z" fill="#455062"/>
<path fill-rule="evenodd" clip-rule="evenodd" d="M42.5209 19.1222C41.4546 19.0185 40.3819 19.0185 39.3156 19.1222L37.9688 20.9964C37.3566 21.1199 36.752 21.2818 36.1591 21.4812L34.0573 20.5309C33.0824 20.9743 32.1524 21.5111 31.2803 22.1341L31.0527 24.4299C30.5832 24.8433 30.1407 25.2858 29.7278 25.7546L27.4319 25.9829C26.8093 26.8545 26.2717 27.7843 25.8292 28.7596L26.7784 30.8619C26.5791 31.4544 26.417 32.0588 26.2935 32.6716L24.4195 34.0171C24.3166 35.0834 24.3166 36.1572 24.4195 37.2234L26.2935 38.5691C26.417 39.1818 26.5791 39.7862 26.7784 40.3787L25.8292 42.4811C26.2717 43.4563 26.8093 44.3861 27.4319 45.2577L29.7278 45.486C30.1407 45.9548 30.5832 46.3973 31.0527 46.8107L31.2803 49.1066C32.1524 49.7295 33.0824 50.2664 34.0573 50.7097L36.1591 49.7595C36.752 49.9588 37.3566 50.1208 37.9688 50.2442L39.3156 52.1184C40.3819 52.2221 41.4546 52.2221 42.5209 52.1184L43.8663 50.2442C44.4799 50.1208 45.0844 49.9588 45.6761 49.7595L47.7791 50.7097C48.7541 50.2664 49.684 49.7295 50.5561 49.1066L50.7838 46.8107C51.2533 46.3973 51.6944 45.9548 52.1086 45.486L54.4046 45.2577C55.0271 44.3861 55.5635 43.4563 56.0073 42.4811L55.0567 40.3787C55.2561 39.7862 55.4182 39.1818 55.5416 38.5691L57.4157 37.2234C57.5199 36.1572 57.5199 35.0834 57.4157 34.0171L55.5416 32.6716C55.4182 32.0588 55.2561 31.4544 55.0567 30.8619L56.0073 28.7596C55.5635 27.7843 55.0271 26.8545 54.4046 25.9829L52.1086 25.7546C51.6944 25.2858 51.2533 24.8433 50.7838 24.4299L50.5561 22.1341C49.684 21.5111 48.7541 20.9743 47.7791 20.5309L45.6761 21.4812C45.0844 21.2818 44.4799 21.1199 43.8663 20.9964L42.5209 19.1222Z" fill="#455062"/>
</svg>
