<svg width="217" height="218" viewBox="0 0 217 218" fill="none" xmlns="http://www.w3.org/2000/svg">
<path fill-rule="evenodd" clip-rule="evenodd" d="M37.3032 48.564C36.9106 49.3944 36.5637 50.2624 36.2621 51.1677C35.1774 54.4298 34.6344 58.0518 34.6344 62.0341C34.6344 65.6774 35.1279 69.003 36.1144 72.0113C37.1009 75.0191 38.6137 77.5818 40.6527 79.7004C42.6917 81.8184 45.257 83.4705 48.348 84.6567C51.4395 85.8429 55.1229 86.4362 59.398 86.4362H95.3103C97.744 86.4362 99.5199 86.9022 100.638 87.8341C101.756 88.7665 102.316 90.3338 102.316 92.5366C102.316 94.7395 101.756 96.3281 100.638 97.3027C99.5199 98.2772 97.744 98.7645 95.3103 98.7645H45.3885L32.2668 120.624H93.732C94.6967 120.624 95.6353 120.601 96.5469 120.553L96.5147 120.605H154.921C156.368 120.605 157.684 120.986 158.868 121.748C160.052 122.511 160.643 123.952 160.643 126.07C160.643 128.273 160.068 129.777 158.917 130.582C157.766 131.387 156.434 131.789 154.921 131.789H96.5147V183.516H154.526C159.723 183.516 164.047 182.88 167.501 181.609C167.999 181.426 168.482 181.233 168.951 181.03L172.741 196.154C166.325 200.866 159.411 204.859 152.122 208.058L139.298 195.646C134.744 197.258 130.071 198.511 125.321 199.391L120.422 216.552C112.51 217.426 104.525 217.426 96.6129 216.552L91.7133 199.391C86.9639 198.511 82.2905 197.258 77.7371 195.646L64.9128 208.058C57.6242 204.859 50.7094 200.866 44.2944 196.154L48.6314 178.842C44.9585 175.705 41.5373 172.284 38.3999 168.61L21.0884 172.948C16.3754 166.533 12.3837 159.618 9.18397 152.329L21.5959 139.505C19.9838 134.952 18.7316 130.278 17.8512 125.529L0.689898 120.629C-0.183742 112.717 -0.183742 104.733 0.689898 96.8206L17.8512 91.9209C18.7316 87.171 19.9838 82.4981 21.5959 77.9443L9.18397 65.1205C12.3837 57.8318 16.3754 50.9171 21.0884 44.5015L37.3032 48.564ZM48.5071 38.111L44.2944 21.2955C50.7094 16.583 57.6242 12.5908 64.9128 9.39109L77.7371 21.8035C82.2905 20.1909 86.9639 18.9387 91.7133 18.0588L96.6129 0.897027C104.525 0.0239076 112.51 0.0239076 120.422 0.897027L125.321 18.0588C130.071 18.9387 134.744 20.1909 139.298 21.8035L152.122 9.39109C159.411 12.5908 166.325 16.583 172.741 21.2955L168.403 38.6076C172.076 41.7449 175.497 45.1656 178.635 48.8391L195.947 44.5015C200.659 50.9171 204.652 57.8318 207.851 65.1205L195.439 77.9443C197.051 82.4981 198.303 87.171 199.183 91.9209L216.345 96.8206C217.218 104.733 217.218 112.717 216.345 120.629L199.183 125.529C198.303 130.278 197.051 134.952 195.439 139.505L207.851 152.329C204.652 159.618 200.659 166.533 195.947 172.948L179.973 168.946C180.009 168.825 180.045 168.704 180.079 168.582C180.935 165.574 181.362 162.291 181.362 158.733C181.362 153.649 180.359 149.497 178.353 146.277C176.347 143.058 173.897 140.897 171.003 139.796C172.121 139.287 173.223 138.546 174.308 137.572C175.393 136.597 176.347 135.369 177.169 133.886C177.991 132.403 178.665 130.688 179.192 128.739C179.718 126.79 179.981 124.545 179.981 122.003C179.981 118.105 179.373 114.695 178.156 111.772C176.939 108.849 175.196 106.392 172.926 104.4C170.658 102.409 167.928 100.927 164.738 99.9522C161.548 98.9777 157.98 98.4904 154.033 98.4904H121.712C121.936 96.6807 122.047 94.7805 122.047 92.7909C122.047 84.9958 119.943 79.1705 115.733 75.3155C111.524 71.4606 105.374 69.5329 97.2838 69.5329H61.3715C59.0033 69.5329 57.244 69.0877 56.0932 68.1985C54.9419 67.3087 54.3667 65.7622 54.3667 63.5594C54.3667 61.3565 54.9419 59.8313 56.0932 58.9842C57.244 58.1366 59.0033 57.7133 61.3715 57.7133H107.15L120.271 35.5987H62.9497C57.9513 35.5987 53.6595 36.2342 50.075 37.5051C49.5373 37.696 49.0147 37.8978 48.5071 38.111ZM117.036 149.963V161.656H154.625C156.861 161.656 158.473 161.148 159.459 160.131C160.446 159.114 160.939 157.631 160.939 155.683C160.939 153.818 160.446 152.399 159.459 151.425C158.473 150.451 156.861 149.963 154.625 149.963H117.036Z" fill="#CBCDD4"/>
</svg>
