<svg id="Layer_1" data-name="Layer 1" xmlns="http://www.w3.org/2000/svg" viewBox="0 0 1551.4 1056.62"><defs><style>.cls-1{font-size:149.35px;font-family:Ethnocentric;}.cls-1,.cls-4{fill:#455062;}.cls-2{letter-spacing:-11px;}.cls-3{letter-spacing:57px;}.cls-4{fill-rule:evenodd;}</style></defs><title>sb-logo-full</title><text class="cls-1" transform="translate(0 1018.54)">Se<tspan class="cls-2" x="270.46" y="0">r</tspan><tspan x="412.19" y="0">vic</tspan><tspan class="cls-3" x="770.17" y="0">e</tspan><tspan x="954.02" y="0">Book</tspan></text><path class="cls-4" d="M971.23,578.35V622h140.43q12.53,0,18-5.7t5.54-16.62q0-10.45-5.54-15.91t-18-5.46H971.23Zm-256-417.82L699.5,97.71a405.87,405.87,0,0,1,77-44.47l47.9,46.37a344.76,344.76,0,0,1,52.22-14l18.3-64.11a405.11,405.11,0,0,1,88.93,0l18.32,64.11a343.91,343.91,0,0,1,52.2,14l47.9-46.37a404.66,404.66,0,0,1,77,44.47l-16.2,64.67a343,343,0,0,1,38.23,38.22l64.67-16.2a405.2,405.2,0,0,1,44.47,77l-46.37,47.9a344,344,0,0,1,14,52.21l64.1,18.3a405.2,405.2,0,0,1,0,88.94l-64.1,18.3a344,344,0,0,1-14,52.21l46.37,47.91a405.12,405.12,0,0,1-44.47,77l-59.68-14.95,0.41-1.36a134.5,134.5,0,0,0,4.78-36.79q0-28.49-11.23-46.53t-27.47-24.21a49.14,49.14,0,0,0,12.35-8.31,52.68,52.68,0,0,0,10.68-13.77,85.44,85.44,0,0,0,7.56-19.23,97,97,0,0,0,3-25.16q0-21.84-6.82-38.22A73.63,73.63,0,0,0,1180,408.14a81.9,81.9,0,0,0-30.6-16.62q-17.86-5.46-40-5.46H988.71A173.71,173.71,0,0,0,990,364.78q0-43.68-23.58-65.28t-68.92-21.6H763.29q-13.26,0-19.72-5t-6.45-17.33q0-12.34,6.45-17.09t19.72-4.75h171l49-82.61H769.2q-28,0-48.1,7.12C719.1,159,717.14,159.72,715.24,160.52Zm-41.84,39a85.39,85.39,0,0,0-3.89,9.73q-6.09,18.28-6.08,40.59a119.49,119.49,0,0,0,5.52,37.27,74.1,74.1,0,0,0,17,28.72q11.42,11.87,28.75,18.51T755.93,341H890.09q13.64,0,19.89,5.22t6.27,17.57q0,12.34-6.27,17.8t-19.89,5.46H703.6l-49,81.66H884.18c3.61,0,7.11-.09,10.51-0.27l-0.12.19h218.19a26.7,26.7,0,0,1,14.74,4.27q6.61,4.27,6.62,16.14,0,12.34-6.45,16.85a25.35,25.35,0,0,1-14.92,4.51H894.57V703.68h216.71q29.11,0,48.47-7.12c1.86-.69,3.65-1.41,5.42-2.16l14.14,56.5a404.56,404.56,0,0,1-77,44.47L1054.39,749a344.13,344.13,0,0,1-52.2,14l-18.32,64.11a405.11,405.11,0,0,1-88.93,0L876.64,763a345,345,0,0,1-52.22-14l-47.9,46.37a405.77,405.77,0,0,1-77-44.47l16.2-64.67A344.59,344.59,0,0,1,677.49,648l-64.67,16.2a405.13,405.13,0,0,1-44.46-77l46.35-47.91a346.27,346.27,0,0,1-14-52.21l-64.1-18.3a405.2,405.2,0,0,1,0-88.94l64.1-18.3a346.29,346.29,0,0,1,14-52.21l-46.35-47.9a405.21,405.21,0,0,1,44.46-77Z" transform="translate(-182.59 -19.06)"/></svg>