<svg width="1552" height="1057" viewBox="0 0 1552 1057" fill="none" xmlns="http://www.w3.org/2000/svg">
<g clip-path="url(#clip0)">
<path d="M134.006 949.961C146.252 949.961 155.562 952.251 161.934 956.831C168.306 961.312 171.492 968.132 171.492 977.292C171.492 982.37 170.696 986.95 169.103 991.032C167.51 995.115 164.971 998.55 161.486 1001.34C158.001 1004.13 153.521 1006.27 148.045 1007.76C142.668 1009.25 136.196 1010 128.629 1010H35.584L55.4475 984.312H131.019C134.703 984.312 137.391 983.764 139.084 982.669C140.776 981.474 141.622 979.582 141.622 976.994C141.622 974.405 140.776 972.563 139.084 971.468C137.391 970.372 134.703 969.825 131.019 969.825H76.6552C70.1834 969.825 64.6077 969.128 59.928 967.734C55.2484 966.34 51.3653 964.398 48.2787 961.909C45.1922 959.42 42.9021 956.433 41.4086 952.948C39.9151 949.364 39.1684 945.431 39.1684 941.15C39.1684 936.47 39.9649 932.238 41.558 928.455C43.2506 924.572 45.7896 921.286 49.1748 918.598C52.6597 915.909 57.0904 913.818 62.467 912.325C67.9432 910.831 74.4648 910.085 82.0318 910.085H168.804L148.941 936.072H79.6422C76.0578 936.072 73.3695 936.569 71.5773 937.565C69.8847 938.561 69.0384 940.353 69.0384 942.942C69.0384 945.53 69.8847 947.372 71.5773 948.468C73.3695 949.463 76.0578 949.961 79.6422 949.961H134.006Z" fill="#455062"/>
<path d="M301.261 984.312L281.398 1010H185.216V910.085H300.963L280.95 936.072H216.281V948.02H295.437L277.664 970.721H216.281V984.312H301.261Z" fill="#455062"/>
<path d="M453.547 1010H412.177L389.924 983.565H342.431V1010H311.515V958.922H398.437C403.216 958.922 407.248 957.927 410.534 955.935C413.82 953.944 415.463 951.206 415.463 947.721C415.463 943.838 413.969 940.95 410.982 939.059C407.995 937.067 403.813 936.072 398.437 936.072H311.515L331.677 910.085H395.898C401.573 910.085 407.448 910.632 413.521 911.728C419.595 912.723 425.121 914.565 430.099 917.254C435.077 919.942 439.16 923.576 442.346 928.156C445.631 932.736 447.274 938.611 447.274 945.779C447.274 949.662 446.677 953.346 445.482 956.831C444.287 960.316 442.545 963.452 440.255 966.24C438.064 969.028 435.326 971.418 432.041 973.409C428.854 975.301 425.22 976.645 421.138 977.442C422.831 978.736 424.722 980.379 426.813 982.37C428.904 984.361 431.692 987.1 435.177 990.584L453.547 1010Z" fill="#455062"/>
<path d="M483.748 910.085L528.703 976.396L575.599 910.085H612.04L548.118 1000.44C545.928 1003.33 543.239 1005.92 540.053 1008.21C536.867 1010.5 532.885 1011.64 528.105 1011.64C523.426 1011.64 519.493 1010.6 516.307 1008.51C513.22 1006.32 510.582 1003.63 508.391 1000.44L445.813 910.085H483.748Z" fill="#455062"/>
<path d="M654.42 1010H623.505V910.085H654.42V1010Z" fill="#455062"/>
<path d="M800.764 984.312L780.9 1010H730.718C722.056 1010 714.041 1008.71 706.673 1006.12C699.305 1003.53 692.933 999.993 687.556 995.513C682.279 990.933 678.097 985.556 675.011 979.383C672.024 973.11 670.53 966.34 670.53 959.072C670.53 951.803 672.024 945.182 675.011 939.208C678.097 933.134 682.279 927.957 687.556 923.676C692.933 919.295 699.305 915.959 706.673 913.669C714.041 911.28 722.056 910.085 730.718 910.085H800.764L780.9 936.072H730.718C726.537 936.072 722.653 936.669 719.069 937.864C715.485 939.059 712.398 940.751 709.809 942.942C707.221 945.033 705.18 947.572 703.686 950.559C702.193 953.546 701.446 956.831 701.446 960.416C701.446 964 702.143 967.286 703.537 970.273C705.03 973.16 707.071 975.649 709.66 977.74C712.348 979.831 715.485 981.474 719.069 982.669C722.653 983.764 726.537 984.312 730.718 984.312H800.764Z" fill="#455062"/>
<path d="M927.54 984.312L907.676 1010H811.495V910.085H927.241L907.228 936.072H842.559V948.02H921.715L903.942 970.721H842.559V984.312H927.54Z" fill="#455062"/>
<path d="M1050.85 958.623C1055.23 959.918 1058.92 962.457 1061.9 966.24C1064.99 970.024 1066.53 974.903 1066.53 980.877C1066.53 985.058 1065.89 988.942 1064.59 992.526C1063.3 996.011 1061.11 999.048 1058.02 1001.64C1054.93 1004.23 1050.75 1006.27 1045.47 1007.76C1040.3 1009.25 1033.78 1010 1025.91 1010H938.092V949.214H1026.51C1028.8 949.214 1030.79 948.766 1032.48 947.87C1034.27 946.875 1035.17 945.082 1035.17 942.494C1035.17 940.005 1034.27 938.312 1032.48 937.416C1030.69 936.52 1028.7 936.072 1026.51 936.072H938.092L959.001 910.085H1025.16C1031.14 910.085 1036.51 910.682 1041.29 911.877C1046.17 912.972 1050.3 914.715 1053.69 917.104C1057.17 919.394 1059.81 922.282 1061.6 925.766C1063.5 929.152 1064.44 933.134 1064.44 937.714C1064.44 940.701 1064.04 943.34 1063.25 945.63C1062.45 947.92 1061.41 949.961 1060.11 951.753C1058.92 953.446 1057.47 954.89 1055.78 956.085C1054.19 957.18 1052.54 958.026 1050.85 958.623ZM969.157 970.572V984.312H1026.06C1029.44 984.312 1031.88 983.714 1033.38 982.52C1034.87 981.325 1035.62 979.582 1035.62 977.292C1035.62 975.102 1034.87 973.459 1033.38 972.364C1031.88 971.169 1029.44 970.572 1026.06 970.572H969.157Z" fill="#455062"/>
<path d="M1151.94 908.442C1176.24 908.442 1194.46 912.574 1206.6 920.838C1218.85 929.102 1224.97 942.145 1224.97 959.968C1224.97 977.89 1218.9 990.983 1206.75 999.247C1194.61 1007.51 1176.34 1011.64 1151.94 1011.64C1127.45 1011.64 1109.13 1007.51 1096.98 999.247C1084.93 990.983 1078.91 977.89 1078.91 959.968C1078.91 942.145 1084.98 929.102 1097.13 920.838C1109.28 912.574 1127.55 908.442 1151.94 908.442ZM1151.94 985.656C1159.71 985.656 1166.28 985.357 1171.66 984.76C1177.03 984.063 1181.36 982.768 1184.65 980.877C1188.03 978.985 1190.47 976.396 1191.97 973.11C1193.46 969.725 1194.21 965.344 1194.21 959.968C1194.21 954.591 1193.46 950.26 1191.97 946.974C1190.47 943.589 1188.03 941 1184.65 939.208C1181.36 937.316 1177.03 936.072 1171.66 935.474C1166.28 934.777 1159.71 934.429 1151.94 934.429C1144.18 934.429 1137.6 934.777 1132.23 935.474C1126.85 936.072 1122.47 937.316 1119.08 939.208C1115.8 941 1113.41 943.589 1111.92 946.974C1110.42 950.26 1109.68 954.591 1109.68 959.968C1109.68 965.344 1110.42 969.725 1111.92 973.11C1113.41 976.396 1115.8 978.985 1119.08 980.877C1122.47 982.768 1126.85 984.063 1132.23 984.76C1137.6 985.357 1144.18 985.656 1151.94 985.656Z" fill="#455062"/>
<path d="M1310.48 908.442C1334.77 908.442 1352.99 912.574 1365.14 920.838C1377.39 929.102 1383.51 942.145 1383.51 959.968C1383.51 977.89 1377.44 990.983 1365.29 999.247C1353.14 1007.51 1334.87 1011.64 1310.48 1011.64C1285.99 1011.64 1267.67 1007.51 1255.52 999.247C1243.47 990.983 1237.45 977.89 1237.45 959.968C1237.45 942.145 1243.52 929.102 1255.67 920.838C1267.82 912.574 1286.09 908.442 1310.48 908.442ZM1310.48 985.656C1318.25 985.656 1324.82 985.357 1330.19 984.76C1335.57 984.063 1339.9 982.768 1343.19 980.877C1346.57 978.985 1349.01 976.396 1350.51 973.11C1352 969.725 1352.75 965.344 1352.75 959.968C1352.75 954.591 1352 950.26 1350.51 946.974C1349.01 943.589 1346.57 941 1343.19 939.208C1339.9 937.316 1335.57 936.072 1330.19 935.474C1324.82 934.777 1318.25 934.429 1310.48 934.429C1302.71 934.429 1296.14 934.777 1290.77 935.474C1285.39 936.072 1281.01 937.316 1277.62 939.208C1274.34 941 1271.95 943.589 1270.45 946.974C1268.96 950.26 1268.21 954.591 1268.21 959.968C1268.21 965.344 1268.96 969.725 1270.45 973.11C1271.95 976.396 1274.34 978.985 1277.62 980.877C1281.01 982.768 1285.39 984.063 1290.77 984.76C1296.14 985.357 1302.71 985.656 1310.48 985.656Z" fill="#455062"/>
<path d="M1525.17 1010H1478.43L1448.26 983.714C1443.08 979.234 1439.1 975.749 1436.31 973.26C1433.62 970.771 1431.43 968.68 1429.74 966.987C1429.84 969.277 1429.94 971.667 1430.04 974.156C1430.14 976.545 1430.19 978.935 1430.19 981.325V1010H1399.12V910.085H1430.19V933.234C1430.19 936.321 1430.14 939.357 1430.04 942.344C1429.94 945.331 1429.79 948.119 1429.59 950.708C1431.58 948.916 1433.97 946.725 1436.76 944.137C1439.65 941.448 1443.38 938.212 1447.96 934.429L1476.78 910.085H1521.59L1483.36 938.76C1480.07 941.249 1477.13 943.44 1474.54 945.331C1472.06 947.223 1469.82 948.866 1467.82 950.26C1465.83 951.654 1463.99 952.898 1462.3 953.994C1460.7 955.089 1459.11 956.134 1457.52 957.13C1460.41 959.121 1463.89 961.61 1467.97 964.597C1472.06 967.584 1477.33 971.717 1483.8 976.994L1525.17 1010Z" fill="#455062"/>
<path fill-rule="evenodd" clip-rule="evenodd" d="M788.64 559.29V602.94H929.07C937.423 602.94 943.423 601.04 947.07 597.24C950.717 593.44 952.563 587.9 952.61 580.62C952.61 573.653 950.763 568.35 947.07 564.71C943.377 561.07 937.377 559.25 929.07 559.25H788.64V559.29ZM532.64 141.47L516.91 78.6498C540.87 61.0512 566.692 46.1384 593.91 34.1798L641.81 80.5498C658.823 74.5234 676.284 69.8424 694.03 66.5498L712.33 2.43983C741.883 -0.823693 771.706 -0.823693 801.26 2.43983L819.58 66.5498C837.32 69.84 854.774 74.5211 871.78 80.5498L919.68 34.1798C946.902 46.1296 972.725 61.043 996.68 78.6498L980.48 143.32C994.209 155.034 1006.99 167.814 1018.71 181.54L1083.38 165.34C1100.98 189.297 1115.9 215.12 1127.85 242.34L1081.48 290.24C1087.51 307.249 1092.19 324.706 1095.48 342.45L1159.58 360.75C1162.84 390.307 1162.84 420.133 1159.58 449.69L1095.48 467.99C1092.19 485.733 1087.51 503.191 1081.48 520.2L1127.85 568.11C1115.9 595.33 1100.98 621.153 1083.38 645.11L1023.7 630.16L1024.11 628.8C1027.39 616.816 1029 604.435 1028.89 592.01C1028.89 573.016 1025.15 557.506 1017.66 545.48C1010.17 533.453 1001.02 525.383 990.19 521.27C994.705 519.143 998.869 516.341 1002.54 512.96C1006.84 508.995 1010.45 504.341 1013.22 499.19C1016.51 493.109 1019.05 486.652 1020.78 479.96C1022.88 471.74 1023.88 463.282 1023.78 454.8C1023.78 440.24 1021.51 427.5 1016.96 416.58C1012.66 406.023 1005.97 396.61 997.41 389.08C988.519 381.41 978.083 375.742 966.81 372.46C954.903 368.82 941.57 367 926.81 367H806.12C806.985 359.94 807.416 352.833 807.41 345.72C807.41 316.6 799.55 294.84 783.83 280.44C768.11 266.04 745.137 258.84 714.91 258.84H580.7C571.86 258.84 565.287 257.173 560.98 253.84C556.673 250.507 554.523 244.73 554.53 236.51C554.53 228.283 556.68 222.587 560.98 219.42C565.28 216.253 571.853 214.67 580.7 214.67H751.7L800.7 132.06H586.61C567.943 132.06 551.91 134.433 538.51 139.18C536.51 139.94 534.55 140.66 532.65 141.46L532.64 141.47ZM490.8 180.47C489.305 183.63 488.006 186.88 486.91 190.2C482.85 202.386 480.823 215.917 480.83 230.79C480.687 243.427 482.551 256.007 486.35 268.06C489.759 278.801 495.573 288.624 503.35 296.78C510.963 304.693 520.547 310.863 532.1 315.29C543.653 319.716 557.4 321.933 573.34 321.94H707.5C716.593 321.94 723.223 323.68 727.39 327.16C731.557 330.64 733.647 336.496 733.66 344.73C733.66 352.956 731.57 358.89 727.39 362.53C723.21 366.17 716.58 367.99 707.5 367.99H521.01L472.01 449.65H701.59C705.2 449.65 708.7 449.56 712.1 449.38L711.98 449.57H930.17C935.395 449.52 940.52 451.005 944.91 453.84C949.317 456.686 951.523 462.066 951.53 469.98C951.53 478.206 949.38 483.823 945.08 486.83C940.704 489.863 935.483 491.441 930.16 491.34H711.98V684.62H928.69C948.097 684.62 964.253 682.246 977.16 677.5C979.02 676.81 980.81 676.09 982.58 675.34L996.72 731.84C972.765 749.447 946.943 764.361 919.72 776.31L871.8 729.94C854.794 735.968 837.34 740.649 819.6 743.94L801.28 808.05C771.726 811.313 741.903 811.313 712.35 808.05L694.05 743.94C676.304 740.646 658.844 735.965 641.83 729.94L593.93 776.31C566.712 764.352 540.89 749.439 516.93 731.84L533.13 667.17C519.405 655.447 506.622 642.665 494.9 628.94L430.23 645.14C412.63 621.182 397.72 595.36 385.77 568.14L432.12 520.23C426.1 503.218 421.419 485.761 418.12 468.02L354.02 449.72C350.756 420.163 350.756 390.337 354.02 360.78L418.12 342.48C421.419 324.738 426.1 307.282 432.12 290.27L385.77 242.37C397.721 215.15 412.63 189.328 430.23 165.37L490.8 180.47Z" fill="#455062"/>
</g>
<defs>
<clipPath id="clip0">
<rect width="1551.4" height="1056.62" fill="white"/>
</clipPath>
</defs>
</svg>
